# xmcd
#
# Track frame offsets: 
#        150
#        15130
#        31543
#        48943
#        69845
#        83939
#        100712
#        124659
#        140572
#        155757
#        179001
#        196068
#        213247
#        230374
#        251757
#        281180
#
# Disc length: 4691 seconds
#
# Revision: 1
# Processed by: cddbd v1.5.2PL0 Copyright (c) Steve Scherf et al.
# Submitted via: ExactAudioCopy v0.90b4
#
DISCID=d1125110
DTITLE=Various Artist - CMT Central Vol.1
DYEAR=1900
DGENRE=Country
TTITLE0=Mark Wills - 19 Somethin'
TTITLE1=Jennifer Hanson - Beautiful Goodbye
TTITLE2=Joe Nichols - Brokenheartsville
TTITLE3=Jo Dee Messina - Burn
TTITLE4=Dwight Yoakam - The Back Of Your Hand
TTITLE5=Chris Cagle - What A Beautiful Day
TTITLE6=Cross Canadian Ragweed - 17
TTITLE7=Rhonda Vincent - You Can't Take It With You When You Go
TTITLE8=Trace Adkins - Chrome
TTITLE9=Montgomery Gentry - Cold One Comin' On
TTITLE10=Alison Krauss - Maybe
TTITLE11=Dierks Bentley - What Was I Thinkin'
TTITLE12=LeAnn Rimes - I Need You
TTITLE13=Keith Urban - Raining On Sunday
TTITLE14=Rascal Flatts - I'm Moving On
TTITLE15=Data
EXTD=
EXTT0=
EXTT1=
EXTT2=
EXTT3=
EXTT4=
EXTT5=
EXTT6=
EXTT7=
EXTT8=
EXTT9=
EXTT10=
EXTT11=
EXTT12=
EXTT13=
EXTT14=
EXTT15=
PLAYORDER=
